<?xml version="1.0" encoding="UTF-8" standalone="no"?>
<svg
   xmlns:dc="http://purl.org/dc/elements/1.1/"
   xmlns:cc="http://creativecommons.org/ns#"
   xmlns:rdf="http://www.w3.org/1999/02/22-rdf-syntax-ns#"
   xmlns:svg="http://www.w3.org/2000/svg"
   xmlns="http://www.w3.org/2000/svg"
   viewBox="0 0 514.66669 189.33333"
   height="189.33333"
   width="514.66669"
   xml:space="preserve"
   id="svg2"
   version="1.1"><metadata
     id="metadata8"><rdf:RDF><cc:Work
         rdf:about=""><dc:format>image/svg+xml</dc:format><dc:type
           rdf:resource="http://purl.org/dc/dcmitype/StillImage" /></cc:Work></rdf:RDF></metadata><defs
     id="defs6"><clipPath
       id="clipPath20"
       clipPathUnits="userSpaceOnUse"><path
         id="path18"
         d="M 0,0 H 3855.12 V 1417.32 H 0 Z" /></clipPath></defs><g
     transform="matrix(1.3333333,0,0,-1.3333333,0,189.33333)"
     id="g10"><g
       transform="scale(0.1)"
       id="g12"><g
         id="g14"><g
           clip-path="url(#clipPath20)"
           id="g16"><path
             id="path22"
             style="fill:#231f20;fill-opacity:1;fill-rule:nonzero;stroke:none"
             d="m 283.469,1077.17 h 623.617 v 56.6914 H 283.469 Z" /><path
             id="path24"
             style="fill:#231f20;fill-opacity:1;fill-rule:nonzero;stroke:none"
             d="m 283.469,850.402 h 623.617 v 56.6875 H 283.469 Z" /><path
             id="path26"
             style="fill:#231f20;fill-opacity:1;fill-rule:nonzero;stroke:none"
             d="m 283.469,623.625 h 623.617 v 56.6992 H 283.469 Z" /><path
             id="path28"
             style="fill:#231f20;fill-opacity:1;fill-rule:nonzero;stroke:none"
             d="m 283.469,396.852 h 623.617 v 56.6953 H 283.469 Z" /><path
             id="path30"
             style="fill:#231f20;fill-opacity:1;fill-rule:nonzero;stroke:none"
             d="m 510.25,963.781 h 623.621 v 56.6875 H 510.25 Z" /><path
             id="path32"
             style="fill:#231f20;fill-opacity:1;fill-rule:nonzero;stroke:none"
             d="m 510.25,737.004 h 623.621 v 56.6992 H 510.25 Z" /><path
             id="path34"
             style="fill:#231f20;fill-opacity:1;fill-rule:nonzero;stroke:none"
             d="m 510.25,510.234 h 623.621 v 56.6914 H 510.25 Z" /><path
             id="path36"
             style="fill:#231f20;fill-opacity:1;fill-rule:nonzero;stroke:none"
             d="m 510.25,283.469 h 623.621 v 56.6914 H 510.25 Z" /><path
             id="path38"
             style="fill:#231f20;fill-opacity:1;fill-rule:nonzero;stroke:none"
             d="m 1592.78,1133.86 h -59.88 v -111.04 h -112.2 v 111.04 h -60.07 V 850.547 h 60.07 v 122.285 h 112.2 V 850.547 h 59.88 z m 350.63,-283.313 -100.39,284.473 h -73.44 l -99.99,-284.473 h 64.72 l 20.54,67.441 h 103.28 l 20.55,-67.441 z m -173.44,117.824 c 20.15,65.239 32.36,106.129 36.62,122.659 1.04,-4.65 2.74,-10.98 5.14,-18.99 2.38,-8 13.08,-42.57 32.07,-103.669 z m 584.82,165.489 h -59.1 l -36.03,-154.641 c -2.35,-9.297 -4.92,-21.473 -7.78,-36.531 -2.83,-15.051 -4.9,-27.61 -6.19,-37.688 -1.42,10.469 -3.49,23 -6.21,37.598 -2.69,14.59 -4.96,25.449 -6.77,32.55 l -41.27,158.712 h -56.78 l -41.27,-158.712 c -2.46,-8.515 -5.08,-20.507 -7.85,-35.937 -2.8,-15.441 -4.55,-26.836 -5.33,-34.211 -2.86,20.93 -7.45,45.676 -13.77,74.219 l -36.23,154.641 h -59.11 l 72.29,-283.313 h 68.2 l 38.19,148.449 c 1.68,6.584 4.06,17.594 7.16,33.034 3.11,15.43 5.04,26.64 5.8,33.63 0.53,-5.7 2.5,-16.84 5.92,-33.44 3.44,-16.6 5.84,-27.55 7.27,-32.853 l 38.38,-148.82 h 68.4 l 72.08,283.313" /><path
             id="path40"
             style="fill:#231f20;fill-opacity:1;fill-rule:nonzero;stroke:none"
             d="M 1592.78,679.973 H 1532.9 V 568.926 h -112.2 v 111.047 h -60.07 V 396.66 h 60.07 v 122.278 h 112.2 V 396.66 h 59.88 z M 1943.41,396.66 1843.02,681.133 h -73.44 L 1669.59,396.66 h 64.72 l 20.54,67.442 h 103.28 l 20.55,-67.442 z m -173.44,117.824 c 20.15,65.235 32.36,106.121 36.62,122.657 1.04,-4.649 2.74,-10.977 5.14,-18.996 2.38,-8.008 13.08,-42.567 32.07,-103.661 z m 425.27,-117.824 73.05,221.875 h 1.76 c -1.56,-35.652 -2.42,-57.617 -2.64,-65.887 -0.17,-8.261 -0.27,-15.558 -0.27,-21.886 V 396.66 h 55.99 v 283.313 h -81.77 L 2170.24,463.32 h -1.17 l -67.05,216.653 h -81.78 V 396.66 h 53.7 v 131.77 c 0,15.117 -1.23,45.281 -3.7,90.496 h 1.74 l 68.23,-222.266 z m 233.89,0 h 106 c 32.05,0 57.4,7.231 76.05,21.699 18.67,14.473 28.01,34.621 28.01,60.461 0,18.223 -3.97,32.821 -11.91,43.797 -7.95,10.988 -20.9,18.477 -38.85,22.481 v 1.945 c 13.16,2.187 23.73,8.719 31.68,19.57 7.95,10.848 11.91,24.727 11.91,41.66 0,24.93 -9.06,43.114 -27.23,54.551 -18.14,11.426 -47.3,17.149 -87.5,17.149 h -88.16 z m 60.08,234.094 h 31.58 c 17.19,0 29.75,-2.363 37.7,-7.07 7.95,-4.727 11.91,-12.5 11.91,-23.352 0,-11.629 -3.65,-19.961 -10.96,-25 -7.28,-5.039 -19.08,-7.559 -35.35,-7.559 h -34.88 z m 37.21,-110.656 c 33.59,0 50.39,-11.758 50.39,-35.274 0,-13.047 -3.97,-22.734 -11.84,-29.062 -7.87,-6.328 -20.1,-9.492 -36.62,-9.492 h -39.14 v 73.828 z m 375.21,159.875 V 506.914 c 0,-21.953 -4.43,-38.074 -13.28,-48.348 -8.85,-10.265 -23.09,-15.402 -42.73,-15.402 -20.28,0 -34.81,5.109 -43.6,15.313 -8.79,10.207 -13.18,26.222 -13.18,48.058 v 173.438 h -59.88 V 497.434 c 0,-32.434 10.07,-57.981 30.23,-76.641 20.16,-18.672 48.46,-28.012 84.88,-28.012 24.16,0 45.08,4.199 62.8,12.598 17.69,8.402 31.21,20.473 40.58,36.242 9.38,15.762 14.04,34.102 14.04,55.031 v 183.321 z m 224.08,-49.219 h 18.23 c 19.37,0 33.67,-2.844 42.91,-8.535 9.23,-5.676 13.86,-15.235 13.86,-28.684 0,-13.555 -4.53,-23.504 -13.57,-29.832 -9.04,-6.328 -23.07,-9.492 -42.05,-9.492 h -19.38 z m 31.98,-125.383 67.63,-108.711 h 66.66 c -12.93,18.602 -40.68,59.746 -83.34,123.438 16.82,7.363 29.79,17.539 38.97,30.519 9.16,12.988 13.75,27.813 13.75,44.473 0,28.555 -9.24,49.844 -27.72,63.848 -18.45,14.023 -46.95,21.035 -85.45,21.035 h -82.56 V 396.66 h 60.08 v 108.711 z m 307.3,0.391 h 53.67 V 446.66 c -12.91,-2.586 -25.64,-3.875 -38.16,-3.875 -24.04,0 -42.35,8.106 -54.94,24.317 -12.6,16.211 -18.91,39.687 -18.91,70.437 0,29.453 7.83,52.902 23.46,70.344 15.62,17.441 36.42,26.16 62.4,26.16 22.34,0 43.87,-5.164 64.53,-15.508 l 19.96,48.067 c -27.01,11.632 -55.04,17.441 -84.12,17.441 -46.37,0 -82.64,-12.793 -108.79,-38.379 -26.17,-25.574 -39.26,-61.219 -39.26,-106.961 0,-47.023 11.27,-83.105 33.83,-108.234 22.54,-25.117 55.2,-37.688 97.95,-37.688 16.8,0 33.24,1.199 49.32,3.59 16.09,2.391 33.24,6.551 51.44,12.5 v 146.891 h -112.38 v -50" /></g></g></g></g></svg>